<svg xmlns="http://www.w3.org/2000/svg" viewBox="0 0 126.2 153.1"><defs><style>.cls-1{fill:#efeff1;}.cls-2{fill:#0d364a;}.cls-3{fill:#00adee;}.cls-4{fill:#144d64;}.cls-5{fill:#fff;}.cls-6{fill:#00386c;}.cls-7{fill:#0066b3;}.cls-8{fill:#231f20;}.cls-9{fill:#ea2d2e;}.cls-10{fill:none;stroke:#fff;stroke-miterlimit:10;stroke-width:1.46px;}</style></defs><title>Asset 1</title><g id="Layer_2" data-name="Layer 2"><g id="Layer_1-2" data-name="Layer 1"><polygon class="cls-1" points="35.8 63.3 35.8 95.4 63.7 111.5 63.6 79.3 35.8 63.3"/><polygon class="cls-2" points="37.9 67 38 94.2 61.5 107.8 61.5 80.6 37.9 67"/><polygon class="cls-1" points="63.6 47.2 35.8 63.3 63.6 79.3 91.5 63.2 63.6 47.2"/><polygon class="cls-3" points="63.6 49.6 39.9 63.3 63.6 76.9 87.3 63.2 63.6 49.6"/><polygon class="cls-1" points="63.6 79.3 63.7 111.5 91.5 95.4 91.5 63.2 63.6 79.3"/><polygon class="cls-4" points="65.6 80.4 65.6 108.2 89.6 94.3 89.6 66.6 65.6 80.4"/><polygon class="cls-5" points="35.4 16.1 35.4 48.3 63.3 64.4 63.3 32.2 35.4 16.1"/><polygon class="cls-6" points="37.6 19.9 37.6 47 61.1 60.6 61.1 33.5 37.6 19.9"/><polygon class="cls-5" points="63.2 0 35.4 16.1 63.3 32.2 91.1 16.1 63.2 0"/><polygon class="cls-3" points="63.3 2.4 39.5 16.1 63.3 29.8 87 16.1 63.3 2.4"/><polygon class="cls-5" points="63.3 32.2 63.3 64.4 91.1 48.3 91.1 16.1 63.3 32.2"/><polygon class="cls-7" points="65.2 33.3 65.2 61.1 89.2 47.2 89.2 19.4 65.2 33.3"/><polygon class="cls-5" points="0.4 84.7 0.4 116.9 28.2 132.9 28.2 100.8 0.4 84.7"/><polygon class="cls-6" points="2.5 88.4 2.5 115.6 26.1 129.2 26.1 102 2.5 88.4"/><polygon class="cls-5" points="28.2 68.6 0.4 84.7 28.2 100.8 56.1 84.7 28.2 68.6"/><polygon class="cls-3" points="28.2 71 4.5 84.7 28.2 98.4 51.9 84.7 28.2 71"/><polygon class="cls-5" points="28.2 100.8 28.2 132.9 56.1 116.8 56.1 84.7 28.2 100.8"/><polygon class="cls-7" points="30.1 101.9 30.2 129.6 54.2 115.7 54.2 88 30.1 101.9"/><polygon class="cls-5" points="0 37.5 0 69.7 27.9 85.8 27.9 53.6 0 37.5"/><polygon class="cls-6" points="2.2 41.3 2.2 68.5 25.7 82 25.7 54.9 2.2 41.3"/><polygon class="cls-5" points="27.8 21.4 0 37.5 27.9 53.6 55.7 37.5 27.8 21.4"/><polygon class="cls-3" points="27.8 23.8 4.1 37.5 27.9 51.2 51.6 37.5 27.8 23.8"/><polygon class="cls-5" points="27.9 53.6 27.9 85.8 55.7 69.7 55.7 37.5 27.9 53.6"/><polygon class="cls-7" points="29.8 54.7 29.8 82.5 53.8 68.6 53.8 40.8 29.8 54.7"/><polygon class="cls-5" points="70.5 81.4 70.5 113.6 98.4 129.6 98.4 97.5 70.5 81.4"/><polygon class="cls-6" points="72.7 85.2 72.7 112.3 96.2 125.9 96.2 98.7 72.7 85.2"/><polygon class="cls-5" points="98.3 65.3 70.5 81.4 98.4 97.5 126.2 81.4 98.3 65.3"/><polygon class="cls-3" points="98.3 67.7 74.6 81.4 98.4 95.1 122.1 81.4 98.3 67.7"/><polygon class="cls-5" points="98.4 97.5 98.4 129.6 126.2 113.6 126.2 81.4 98.4 97.5"/><polygon class="cls-7" points="100.3 98.6 100.3 126.3 124.3 112.5 124.3 84.7 100.3 98.6"/><polygon class="cls-5" points="70.1 36.8 70.1 68.9 98 85 98 52.8 70.1 36.8"/><polygon class="cls-6" points="72.3 40.5 72.3 67.7 95.8 81.2 95.8 54.1 72.3 40.5"/><polygon class="cls-5" points="98 20.7 70.1 36.8 98 52.8 125.8 36.7 98 20.7"/><polygon class="cls-3" points="98 23.1 74.3 36.8 98 50.4 121.7 36.7 98 23.1"/><polygon class="cls-5" points="98 52.8 98 85 125.8 68.9 125.8 36.7 98 52.8"/><polygon class="cls-7" points="99.9 53.9 99.9 81.7 123.9 67.8 123.9 40 99.9 53.9"/><polygon class="cls-5" points="35.1 104.9 35.1 137 63 153.1 62.9 120.9 35.1 104.9"/><polygon class="cls-6" points="37.3 108.6 37.3 135.8 60.8 149.3 60.8 122.2 37.3 108.6"/><polygon class="cls-5" points="62.9 88.8 35.1 104.9 62.9 120.9 90.8 104.8 62.9 88.8"/><polygon class="cls-3" points="62.9 91.2 39.2 104.9 62.9 118.5 86.7 104.8 62.9 91.2"/><polygon class="cls-5" points="63 120.9 63 153.1 90.8 137 90.8 104.8 63 120.9"/><polygon class="cls-7" points="64.9 122 64.9 149.8 88.9 135.9 88.9 108.1 64.9 122"/><path class="cls-1" d="M8.2,48.5a1.6,1.6,0,1,0-1.6,1.6,1.58,1.58,0,0,0,1.6-1.6"/><path class="cls-3" d="M13.3,51.5a1.6,1.6,0,1,0-1.6,1.6,1.81,1.81,0,0,0,1.6-1.6"/><path class="cls-1" d="M18.4,54.4A1.6,1.6,0,1,0,16.8,56a1.58,1.58,0,0,0,1.6-1.6"/><path class="cls-1" d="M23.9,57.6a1.6,1.6,0,1,0-1.6,1.6,1.58,1.58,0,0,0,1.6-1.6"/><path class="cls-1" d="M13.3,57.8a1.6,1.6,0,1,0-1.6,1.6,1.64,1.64,0,0,0,1.6-1.6"/><path class="cls-1" d="M18.4,60.8a1.6,1.6,0,1,0-1.6,1.6,1.58,1.58,0,0,0,1.6-1.6"/><path class="cls-3" d="M23.9,64a1.6,1.6,0,1,0-1.6,1.6A1.72,1.72,0,0,0,23.9,64"/><path class="cls-3" d="M8.2,61.4A1.6,1.6,0,1,0,6.6,63a1.58,1.58,0,0,0,1.6-1.6"/><path class="cls-1" d="M13.3,64.3a1.6,1.6,0,1,0-1.6,1.6,1.64,1.64,0,0,0,1.6-1.6"/><path class="cls-1" d="M18.4,67.3a1.6,1.6,0,1,0-1.6,1.6,1.58,1.58,0,0,0,1.6-1.6"/><path class="cls-1" d="M23.9,70.5a1.6,1.6,0,1,0-1.6,1.6,1.58,1.58,0,0,0,1.6-1.6"/><path class="cls-1" d="M8.2,67.6a1.6,1.6,0,1,0-1.6,1.6,1.58,1.58,0,0,0,1.6-1.6"/><path class="cls-1" d="M18.4,73.5a1.6,1.6,0,1,0-1.6,1.6,1.58,1.58,0,0,0,1.6-1.6"/><path class="cls-3" d="M23.9,76.7a1.6,1.6,0,1,0-1.6,1.6,1.72,1.72,0,0,0,1.6-1.6"/><path class="cls-8" d="M72.8,77.3V56.5c0-6.8-7.5-7.4-9.7-7.4s-9.7.5-9.7,7.4V77.3H46.8V56.5c0-9.6,8.2-13.9,16.3-13.9s16.3,4.3,16.3,13.9V77.3Z"/><path class="cls-5" d="M63.1,43.1c7.8,0,15.7,4.1,15.7,13.4V76.7H73.3V56.5c0-7.3-7.9-7.9-10.3-7.9s-10.3.6-10.3,7.9V76.7H47.2V56.5c.1-9.3,8-13.4,15.9-13.4m0-1.1c-8.4,0-16.8,4.5-16.8,14.5V77.8H54V56.5c0-6.1,6.4-6.8,9.2-6.8s9.2.7,9.2,6.8V77.8h7.7V56.5c-.2-10-8.7-14.5-17-14.5"/><path class="cls-9" d="M63.1,110A21.6,21.6,0,1,1,84.7,88.4,21.64,21.64,0,0,1,63.1,110"/><path class="cls-10" d="M63.1,110A21.6,21.6,0,1,1,84.7,88.4,21.64,21.64,0,0,1,63.1,110Z"/><path class="cls-5" d="M63.1,46a14.83,14.83,0,0,1,13.7,9.2,13.55,13.55,0,0,0-13.7-11c-6,0-12.1,3.4-13.7,11A14.88,14.88,0,0,1,63.1,46"/><path class="cls-5" d="M81,88.4A17.9,17.9,0,1,1,63.1,70.5,17.88,17.88,0,0,1,81,88.4M63.1,73.6A14.9,14.9,0,1,0,78,88.5,14.94,14.94,0,0,0,63.1,73.6"/><path class="cls-8" d="M60.5,96.7l.6-7.4A5.15,5.15,0,0,1,58,84.7a5,5,0,1,1,6.9,4.6l.6,7.4Z"/></g></g></svg>