<svg xmlns="http://www.w3.org/2000/svg" viewBox="0 0 159.4 135.1"><defs><style>.cls-1{fill:#03509e;}.cls-2{fill:#fff;}.cls-3{fill:#1d9dd9;}</style></defs><title>Asset 4</title><g id="Layer_2" data-name="Layer 2"><g id="Layer_1-2" data-name="Layer 1"><path class="cls-1" d="M56.4,22.3a56.4,56.4,0,1,0,56.4,56.4A56.4,56.4,0,0,0,56.4,22.3m0,102A45.6,45.6,0,1,1,102,78.7a45.58,45.58,0,0,1-45.6,45.6"/><path class="cls-1" d="M92.6,59.4a4.23,4.23,0,0,1-4.2-4.2V29a4.23,4.23,0,0,1,4.2-4.2h26.2A4.23,4.23,0,0,1,123,29V55.2a4.23,4.23,0,0,1-4.2,4.2Z"/><path class="cls-2" d="M118.8,27.5a1.54,1.54,0,0,1,1.5,1.5V55.2a1.54,1.54,0,0,1-1.5,1.5H92.6a1.54,1.54,0,0,1-1.5-1.5V29a1.54,1.54,0,0,1,1.5-1.5h26.2m0-5.3H92.6A6.81,6.81,0,0,0,85.8,29V55.2A6.81,6.81,0,0,0,92.6,62h26.2a6.81,6.81,0,0,0,6.8-6.8V29a6.87,6.87,0,0,0-6.8-6.8"/><path class="cls-1" d="M128.5,36.6a2.11,2.11,0,0,1-2.1-2.1V14a2.11,2.11,0,0,1,2.1-2.1H149a2.11,2.11,0,0,1,2.1,2.1V34.5a2.11,2.11,0,0,1-2.1,2.1Z"/><path class="cls-2" d="M149,12.9a1.16,1.16,0,0,1,1.2,1.2V34.6a1.16,1.16,0,0,1-1.2,1.2H128.5a1.16,1.16,0,0,1-1.2-1.2V14.1a1.16,1.16,0,0,1,1.2-1.2H149m0-1.8H128.5a2.9,2.9,0,0,0-2.9,2.9V34.5a2.9,2.9,0,0,0,2.9,2.9H149a2.9,2.9,0,0,0,2.9-2.9V14a2.84,2.84,0,0,0-2.9-2.9"/><path class="cls-3" d="M119.8,20.4H107.7a.68.68,0,0,1-.7-.7V7.6a.68.68,0,0,1,.7-.7h12.1a.68.68,0,0,1,.7.7V19.7a.68.68,0,0,1-.7.7"/><path class="cls-1" d="M158.9,10.2h-9.2a.47.47,0,0,1-.5-.5V.5a.47.47,0,0,1,.5-.5h9.2a.47.47,0,0,1,.5.5V9.7a.47.47,0,0,1-.5.5"/><path class="cls-3" d="M139,47.9a5.8,5.8,0,1,1-5.8-5.8,5.68,5.68,0,0,1,5.8,5.8"/><path class="cls-2" d="M108.9,51.6h-6.8l1.3-9.5a4.71,4.71,0,0,1-2.2-4,4.53,4.53,0,0,1,4.4-4.5,4.35,4.35,0,0,1,4.4,4.3,4.91,4.91,0,0,1-2.3,4.2Z"/><path class="cls-1" d="M35.1,49.2l8.7,15.6a9.83,9.83,0,0,0-1.6.5L32.5,51a20.28,20.28,0,0,1,2.6-1.8M55.3,65.5,55,43.7H54a24.37,24.37,0,0,0-2.7.1l.1,6-.9-6a37.53,37.53,0,0,0-7.7,1.6l1.8,6.7A29.62,29.62,0,0,1,49.1,51l2.6,13.4c1.3.4,2.5.7,3.6,1.1M25.5,71.8l6.4,2.1a10.05,10.05,0,0,1,1.6-2.4L26.4,69a22.94,22.94,0,0,0-.9,2.8M23.1,61.5l12.1,7.9a32.53,32.53,0,0,1,2.9-2.3L25,58.5c-.6,1-1.3,2-1.9,3M82.4,83.3,73,81.6l9.5.2c0-.7.1-1.3.1-2v-.7l-8.9-.2,8.8-1.2h0l7.2-1A31.85,31.85,0,0,0,88.2,69l-6,1.5,5.7-2.3A30.55,30.55,0,0,0,86.6,65l-5.8,2.2,5.4-2.9A36.33,36.33,0,0,0,72.2,49l-3.3,4.8,2.8-5.4a31.82,31.82,0,0,0-3.2-1.6l-2.8,5.4,2.1-5.7a19.57,19.57,0,0,0-3.4-1.2L57,66.3a18.21,18.21,0,0,1,8.3,8.6l15.8-4.6a24.55,24.55,0,0,1,.8,2.9L66.3,77.6a15.4,15.4,0,0,1,.6,4.3,16.35,16.35,0,0,1-2.6,9l15.5,13.6a36.79,36.79,0,0,0,8.5-14.1l-5.8-2.3,6,1.4a23.39,23.39,0,0,0,.9-3.8L82.3,84a1.7,1.7,0,0,1,.1-.7M62.6,93,69,104.3a21.48,21.48,0,0,1-2.6,1.4l-6-10.6a13.3,13.3,0,0,1-1.9,1.4l6.4,17.1,3.3-1.2L66,106.5l3,5.6a32.49,32.49,0,0,0,6.7-4.1L63.9,91.2A10.15,10.15,0,0,1,62.6,93M50.2,99.4l-.8,9,2.7.3-.1,6.6c.7,0,1.3.1,2,.1h1.6v-6.7c.3,0,.6-.1.9-.1L55.9,98a20.71,20.71,0,0,1-5.7,1.4"/><path class="cls-3" d="M37.6,61.2a23.39,23.39,0,0,1,4.9-3.3l-.9-2a27.8,27.8,0,0,1,4-1.6l3.7,10h-.9a18.86,18.86,0,0,0-7.2,1.4Zm11.9,3.1a18.86,18.86,0,0,1,11.9,5.2l6.9-11.1a22.61,22.61,0,0,0-2.6-1.6l-2.4,4a28.8,28.8,0,0,0-3.1-1.3l1.3-4.7a23.39,23.39,0,0,0-3.8-.9l.3-2.7a30,30,0,0,0-4.3-.3c-1,0-2.1.1-3.1.2l.5,10.8-1.8.3Zm-8.4,1.4-5.6-5.6a24.83,24.83,0,0,0-4.4,5.3l4.8,3.5a19.67,19.67,0,0,1,5.2-3.2M65.3,75l6.6-1.8,5.6-2.6a27.31,27.31,0,0,0-3-5.6l2.7-2.1a13.45,13.45,0,0,0-1.1-1.4L63,71.3A13.65,13.65,0,0,1,65.3,75m-17,24.5H47.1l-1.5,6.4a24.61,24.61,0,0,0,2.9.7l1.7-7.1H48.3m27.6-12a8.44,8.44,0,0,0,.5-1.7l-5.8-2a22,22,0,0,0,.4-3.6,25.79,25.79,0,0,0-.4-3.9l-4.3,1.2a15.4,15.4,0,0,1,.6,4.3A17,17,0,0,1,62.7,93l1,1.7a4.23,4.23,0,0,1,.7-.5l3.9,4.6a23.16,23.16,0,0,0,3.5-3.5L67.5,91a21.41,21.41,0,0,0,1.3-1.9L74,91.8c.3-.6.7-1.2,1-1.8l5,2.2c.4-.9.8-1.8,1.2-2.8ZM35,69.7l-3-1.5a13.07,13.07,0,0,0-1.2,2.7L33.2,72A13,13,0,0,1,35,69.7M61.3,96.6l-.8-1.4a20.51,20.51,0,0,1-4.7,2.9l2.1,10.4a12.66,12.66,0,0,0,2.8-.6c-.2-1.2-.6-2.9-.9-4.3a20.63,20.63,0,0,0,3.5-1.2ZM44,99l-1.3,3.3c.9.4,1.8.8,2.7,1.1l1.7-4A10.55,10.55,0,0,1,44,99"/><path class="cls-1" d="M59,81.9A10.71,10.71,0,1,1,48.3,71.7,10.49,10.49,0,0,1,59,81.9"/></g></g></svg>